<svg width="29" height="27" viewBox="0 0 29 27" fill="none" xmlns="http://www.w3.org/2000/svg">
<path d="M14.501 25.6365L14.0663 25.8836C14.1552 26.0399 14.3211 26.1365 14.501 26.1365C14.6808 26.1365 14.8467 26.0399 14.9356 25.8836L14.501 25.6365ZM28.8022 13.5038C26.6413 13.4298 24.0625 14.467 21.4949 16.4585C18.9167 18.4583 16.3039 21.454 14.0663 25.3893L14.9356 25.8836C17.118 22.0454 19.6485 19.1562 22.1078 17.2487C24.5779 15.3328 26.9312 14.4403 28.768 14.5032L28.8022 13.5038ZM0.233904 14.5032C2.07073 14.4403 4.42398 15.3328 6.8941 17.2487C9.35346 19.1562 11.8839 22.0454 14.0663 25.8836L14.9356 25.3893C12.698 21.454 10.0853 18.4583 7.50698 16.4585C4.93946 14.467 2.36063 13.4298 0.19969 13.5038L0.233904 14.5032ZM15 25.3279V0H14V25.3279H15Z" fill="#F4F1EC"/>
</svg>
