<svg width="1674" height="11" viewBox="0 0 1674 11" fill="none" xmlns="http://www.w3.org/2000/svg">
<path d="M1673 1.94156L1622.3 3.97428H1607.81L1602.98 2.71758L1582.46 2.71758L1553.49 3.97428L1507.61 2.71758L1377.23 2.71759C1354.29 4.48246 1305.16 2.92214 1289.7 2.71759C1231.03 1.93446 1034.32 -0.0920084 987.622 1.75417L889.115 2.58842C857.526 2.29239 822.958 4.35117 789.867 4.59341C755.171 4.84369 720.802 4.69298 686.016 4.92712L617.149 7.39493C607.534 7.38686 603.525 5.19354 602.196 9.99999L558.736 7.39494L500.789 3.9743L465.78 9.99999H438.014L409.04 7.39494L1 10" stroke="#6D7770" stroke-width="0.6"/>
</svg>
