<svg width="350" height="48" viewBox="0 0 350 48" fill="none" xmlns="http://www.w3.org/2000/svg">
<path d="M92.7142 43.2629V43.4657H92.917H107.068C108.627 43.4657 109.863 42.8834 110.756 41.7166L110.759 41.715L110.787 41.6797C111.681 40.5507 112.363 39.044 112.839 37.1721L113.722 37.3692L111.995 44.2031L111.994 44.2068L111.395 46.4011H82.9528V45.4533C84.2603 45.4265 85.3288 45.1379 86.1384 44.5663C87.0235 43.9413 87.434 42.7928 87.434 41.2012V6.64105C87.434 5.09495 87.0231 3.97205 86.1415 3.34769C85.3317 2.73053 84.2619 2.41573 82.9528 2.38655V1.51065H97.1954V2.38655C95.8863 2.41573 94.8165 2.73053 94.0067 3.3477C93.1251 3.9721 92.7142 5.09761 92.7142 6.64105V43.2629Z" stroke="#4B5B47" stroke-width="0.405584"/>
<path d="M125.648 43.2629V43.4657H125.851H140.002C141.56 43.4657 142.796 42.8834 143.69 41.7167L143.693 41.7151L143.721 41.6797C144.615 40.5507 145.296 39.044 145.773 37.1721L146.655 37.3692L144.929 44.2031L144.928 44.2068L144.328 46.4011H115.886V45.4533C117.194 45.4265 118.262 45.1379 119.072 44.5663C119.957 43.9413 120.368 42.7928 120.368 41.2012V6.64105C120.368 5.09495 119.957 3.97205 119.075 3.34769C118.265 2.73053 117.196 2.41573 115.886 2.38655V1.51065H130.129V2.38655C128.82 2.41573 127.75 2.73053 126.94 3.3477C126.059 3.9721 125.648 5.09761 125.648 6.64105V43.2629Z" stroke="#4B5B47" stroke-width="0.405584"/>
<path d="M201.038 44.5665L201.038 44.5663C200.152 43.9413 199.742 42.7928 199.742 41.2012V21.4772V21.2744H199.945H200.748H200.84L200.9 21.3433L219.232 42.205L219.235 42.2092L219.235 42.2093C219.596 42.6434 219.858 43.0329 220.011 43.3766C220.163 43.7179 220.22 44.0405 220.126 44.3228C219.95 44.855 219.43 45.1633 218.695 45.3123L218.682 45.315L218.682 45.3146C217.991 45.4072 216.956 45.4535 215.586 45.4576V46.4037H227.705V45.6155L214.91 30.597L201.038 44.5665ZM201.038 44.5665C201.847 45.1353 202.915 45.4263 204.223 45.4533V46.4011H190.238V45.4533C191.545 45.4265 192.614 45.1379 193.424 44.5663C194.309 43.9413 194.719 42.7928 194.719 41.2012V6.64105C194.719 5.09495 194.308 3.97205 193.427 3.34769C192.617 2.73053 191.547 2.41573 190.238 2.38655V1.51323H208.807C212.997 1.51323 216.241 2.45417 218.564 4.31297L218.564 4.31298L218.566 4.31456C220.881 6.11891 222.043 8.71233 222.043 11.9768C222.043 15.2411 220.904 17.7878 218.632 19.6419L218.632 19.6419C216.355 21.5025 213.369 22.4404 209.659 22.4404C208.211 22.4404 206.931 22.2295 205.82 21.8124L205.649 21.748L205.567 21.9122L205.426 22.1979L205.343 22.3655L205.503 22.4618C207.149 23.451 208.776 24.6507 210.379 26.0666L210.381 26.0686M201.038 44.5665L210.381 26.0686M210.381 26.0686C212.031 27.4827 213.542 28.9939 214.91 30.5969L210.381 26.0686ZM198.527 4.37654H198.324V4.57933V9.4492V9.45178C198.324 14.7518 200.057 17.3001 202.053 18.5036C203.843 19.5821 205.803 19.5495 206.747 19.5338C206.846 19.5322 206.933 19.5307 207.008 19.5307C208.38 19.5307 210.565 19.1946 212.414 18.0493C214.276 16.8965 215.789 14.9264 215.789 11.6962C215.789 10.397 215.609 9.43413 215.237 8.62192C214.866 7.81088 214.312 7.16673 213.594 6.49523C212.872 5.77476 211.799 5.24717 210.497 4.89885C209.191 4.54952 207.638 4.37654 205.942 4.37654H198.527Z" stroke="#4B5B47" stroke-width="0.405584"/>
<path d="M297.574 2.74326C296.508 2.51239 295.163 2.39394 293.542 2.38488V1.50809H309.918V2.38355C308.507 2.40878 307.264 2.69884 306.19 3.25768C305.04 3.80968 304.227 4.83019 303.741 6.29132L303.741 6.29203L290.559 46.4011H284.951L271.842 6.36492C271.842 6.3648 271.842 6.36468 271.841 6.36456C271.354 4.85917 270.545 3.81339 269.392 3.26025C268.318 2.70141 267.075 2.41135 265.664 2.38612V1.51066H275.484L288.848 42.2425L289.243 42.1944C289.292 41.5424 289.348 40.8648 289.415 40.1538C289.697 37.6552 290.193 35.3694 290.898 33.3008C290.898 33.3006 290.898 33.3005 290.898 33.3003L300.142 6.42459C300.532 5.40242 300.508 4.55475 299.967 3.95078C299.495 3.328 298.682 2.93731 297.574 2.74326Z" stroke="#4B5B47" stroke-width="0.405584"/>
<path d="M323.416 43.2605V43.4633H323.619H342.818C344.395 43.4633 345.665 42.8407 346.604 41.6066C347.54 40.4368 348.289 38.8907 348.856 36.9767L349.75 37.2755L347.743 44.1979L347.743 44.2001L347.076 46.4012H313.652V45.4534C314.959 45.4267 316.028 45.138 316.838 44.5664C317.723 43.9415 318.133 42.7929 318.133 41.2013V6.64118C318.133 5.09509 317.722 3.97219 316.841 3.34782C316.031 2.73066 314.961 2.41586 313.652 2.38668V1.50821H347.123L347.451 3.60864L347.451 3.61205L348.42 10.5945L347.539 10.7416C347.249 8.83409 346.754 7.30847 346.049 6.17855C345.344 4.9722 344.207 4.37409 342.676 4.37409H323.619H323.416V4.57689V21.0037V21.2065H323.619H338.198C339.731 21.2065 340.848 20.8972 341.476 20.2175C342.093 19.5515 342.414 18.6921 342.451 17.6519H343.328V27.5575H342.451C342.414 26.5231 342.095 25.6829 341.476 25.0613C340.847 24.3324 339.727 24.0003 338.198 24.0003H323.619H323.416V24.2031V43.2605Z" stroke="#4B5B47" stroke-width="0.405584"/>
<path d="M247.845 0.800448C251.988 0.800448 255.513 1.70259 258.433 3.50193L258.827 3.75419C261.826 5.67449 264.052 8.34449 265.506 11.768L265.506 11.768L265.508 11.771C267.01 15.1537 267.766 19.0577 267.766 23.4928C267.766 27.9275 267.01 31.9284 265.506 35.5038C264.005 39.0268 261.754 41.8163 258.753 43.8781C255.807 45.8893 252.176 46.9006 247.845 46.9006C243.515 46.9006 239.861 45.8896 236.866 43.8779C233.865 41.8135 231.614 39.024 230.113 35.5035C228.608 31.9282 227.853 27.9248 227.853 23.4928C227.853 19.0603 228.609 15.1537 230.111 11.771L230.111 11.7701C231.612 8.34555 233.862 5.67482 236.861 3.75419L236.861 3.7542L236.863 3.75301C239.859 1.78903 243.514 0.800448 247.845 0.800448ZM235.067 34.3701L235.068 34.3726C236.216 37.5298 237.87 39.9806 240.038 41.715C242.211 43.4529 244.816 44.3205 247.845 44.3205C250.875 44.3205 253.48 43.4529 255.653 41.715C257.822 39.9802 259.452 37.5289 260.553 34.3713C261.701 31.2177 262.272 27.5904 262.272 23.4953C262.272 19.4006 261.701 15.844 260.552 12.8301C259.45 9.81335 257.819 7.48064 255.649 5.84195C253.476 4.15172 250.873 3.31113 247.845 3.31113C244.818 3.31113 242.214 4.15172 240.041 5.84195C237.872 7.48035 236.218 9.81515 235.069 12.8288L235.069 12.8288L235.068 12.8316C233.97 15.8448 233.422 19.4009 233.422 23.4953C233.422 27.5901 233.967 31.2143 235.067 34.3701Z" stroke="#4B5B47" stroke-width="0.405584"/>
<path d="M54.9605 41.1943L54.9609 41.1943C55.2032 42.7483 55.819 43.8563 56.8354 44.4667L56.836 44.467C57.7758 45.0273 58.9065 45.3186 60.2221 45.3455V46.2933H45.0554V45.3462C46.6783 45.3246 47.9382 45.0397 48.8034 44.4629C49.8001 43.8322 50.1319 42.6859 49.8896 41.1328C49.8895 41.1324 49.8895 41.132 49.8894 41.1316L44.8886 6.4374L44.4938 6.40781L32.4707 46.2933H27.083L14.8209 6.23453L14.4262 6.26566L9.52538 41.1347L9.52501 41.1377C9.32965 42.6952 9.6883 43.8359 10.6836 44.4643L10.6839 44.4645C11.5951 45.0373 12.8994 45.325 14.5709 45.3463V46.2933H0.755526V45.3457C2.11454 45.3198 3.27145 45.0313 4.21174 44.4667C5.23052 43.8548 5.8196 42.7415 6.01486 41.1898C6.01492 41.1893 6.01499 41.1887 6.01506 41.1882L10.9205 6.5617L10.9206 6.56171L10.9211 6.55776C11.1133 4.97816 10.8872 3.81878 10.1413 3.17985C9.45969 2.596 8.45284 2.30563 7.15432 2.27861V1.40287H18.3919L30.6926 41.5852L31.0892 41.5323C31.1097 40.8909 31.1405 40.2506 31.1891 39.616C31.3292 37.7874 31.7524 35.7881 32.4589 33.6198L32.4592 33.6189L42.7947 1.40544H53.6792V2.28118C52.3807 2.30821 51.3738 2.59858 50.6922 3.18242C49.9435 3.82382 49.7439 4.98668 49.9826 6.56515C49.9827 6.56549 49.9827 6.56583 49.9828 6.56617L54.9605 41.1943Z" stroke="#4B5B47" stroke-width="0.405584"/>
<path d="M75.1145 44.4616L75.1145 44.4617L75.1189 44.4645C76.0232 45.0329 77.2301 45.3222 78.7228 45.346V46.2933H63.484V45.346C64.9725 45.3224 66.1561 45.0361 67.0183 44.463C68.0011 43.8412 68.462 42.6917 68.462 41.0934V6.53326C68.462 4.98004 68.0004 3.85632 67.0214 3.2352C66.1586 2.61613 64.9736 2.30398 63.484 2.27826V1.40287H69.1112H69.1138H78.7228V2.27826C77.2281 2.30401 76.0189 2.61729 75.1134 3.23529C74.182 3.8577 73.7448 4.98452 73.7448 6.53326V41.0934C73.7448 42.6885 74.178 43.8382 75.1145 44.4616Z" stroke="#4B5B47" stroke-width="0.405584"/>
<path d="M185.853 26.6813L185.863 38.9803C183.799 41.4454 181.416 43.3611 178.708 44.7156C175.706 46.1691 172.183 46.8981 168.131 46.8981C161.826 46.8981 156.982 44.8546 153.566 40.7833C150.147 36.6589 148.422 30.904 148.422 23.4902C148.422 19.012 149.271 15.0618 150.961 11.6347C152.699 8.15783 155.093 5.4852 158.139 3.61235C161.242 1.73163 163.922 0.797885 167.86 0.797885C171.826 0.797885 176.007 1.60206 178.474 3.18276L178.474 3.18278L178.476 3.18414C180.956 4.72918 182.729 6.73712 183.803 9.20847C184.882 11.6924 185.42 14.4392 185.42 17.4466V18.5721L178.638 17.8405C179.209 16.0132 179.497 14.2695 179.497 12.6102C179.497 9.7183 178.555 7.42977 176.656 5.77369C174.808 4.12188 172.339 3.30599 169.268 3.30599C166.39 3.30599 163.77 4.00197 161.415 5.396L161.415 5.39599L161.413 5.39692C159.096 6.79689 157.247 9.01224 155.859 12.0287L155.859 12.0299C154.515 15.0046 153.851 18.8273 153.851 23.4902C153.851 27.634 154.495 31.2197 155.788 34.2364L155.788 34.2365L155.789 34.2401C157.131 37.2095 159.002 39.4935 161.409 41.0824L161.409 41.0824L161.413 41.0848C162.791 41.9517 164.292 42.5728 165.915 42.951C168.005 43.4391 170.336 43.4644 172.449 43.1236L172.449 43.1236C173.936 42.8828 176.294 42.36 178.389 41.3133C180.48 40.2687 182.352 38.6794 182.78 36.2875C183.076 34.6372 182.677 33.3302 181.97 32.3164C181.269 31.3106 180.271 30.6017 179.374 30.1224C179.117 29.9634 178.834 29.8197 178.52 29.7023C178.315 29.621 178.093 29.5426 177.856 29.4695C177.435 29.3271 177.073 29.2336 176.817 29.1755C176.688 29.1463 176.585 29.1261 176.515 29.113C176.479 29.1065 176.451 29.1018 176.433 29.0986L176.411 29.0951L176.409 29.0948C175.831 28.9732 175.195 28.8647 174.493 28.7667L174.49 28.7662L163.646 27.4368V26.6813H185.853Z" stroke="#4B5B47" stroke-width="0.405584"/>
</svg>
