<svg width="113" height="114" viewBox="0 0 113 114" fill="none" xmlns="http://www.w3.org/2000/svg">
<g clip-path="url(#clip0_79_482)">
<path d="M16.32 41.07L16.74 41.17L16.41 42.57C16.03 44.2 15.88 44.65 14.26 44.95L8.35002 46.35L8.26002 46.72L8.15002 47.19L13.14 48.37C14.21 48.62 14.58 48.45 14.97 46.82L15.39 46.92L14.04 52.63L13.62 52.53C14 50.9 13.75 50.58 12.68 50.33L2.27002 47.87C1.20002 47.62 0.830019 47.79 0.44002 49.42L0.0200195 49.32L1.27002 44.03C1.96002 41.1 3.56002 39.82 5.87002 40.36C8.59002 41 8.81002 43.33 8.50002 45.44L8.53002 45.3H8.58002C8.96002 44.55 9.57002 44.01 11.02 43.69L14.64 42.84C15.78 42.57 16.07 42.12 16.31 41.07H16.32ZM5.36002 42.37C3.48002 41.93 2.32002 42.8 1.97002 44.27C1.85002 44.8 1.85002 45.31 1.96002 45.73L7.42002 47.02L7.53002 46.55C7.87002 45.17 7.91002 42.98 5.35002 42.37H5.36002Z" fill="#5D3F32"/>
<path d="M8.61002 27.01L11.34 28.04L11.19 28.45C9.02002 27.63 8.50002 27.78 7.99002 28.76L6.22002 32.18L11.3 34.81L12.39 32.72C12.89 31.75 12.82 31.34 11.18 30.49L11.38 30.11L15.79 32.4L15.59 32.78C13.94 31.93 13.57 32.1 13.07 33.07L11.98 35.16L16.79 37.65C17.54 38.04 17.77 37.99 18.09 37.37L19.58 34.49C20.08 33.52 19.84 32.86 17.77 30.94L18.06 30.62L20.66 33.04L21 33.36L16.54 41.96L16.16 41.76C16.93 40.27 16.76 39.9 15.78 39.4L6.29002 34.48C5.32002 33.97 4.91002 34.05 4.14002 35.53L3.76002 35.33L8.17002 26.83L8.63002 27.01H8.61002Z" fill="#5D3F32"/>
<path d="M17.39 29.66L17.67 29.33C19.96 31.13 22.41 31.03 23.65 29.53C24.58 28.41 24.46 27.11 23.4 26.24C22.15 25.21 20.13 25.73 17.82 26.15C15.18 26.61 13.88 26.77 12.42 25.56C10.83 24.24 10.96 22.3 12.21 20.79C13.45 19.29 14.92 19.46 15.2 19.13C15.33 18.98 15.25 18.82 14.64 18.31L14.92 17.98L18.18 20.68L17.9 21.01C16.15 19.65 14.11 19.65 12.91 21.11C11.96 22.26 12.22 23.32 12.96 23.93C14 24.79 15.57 24.34 17.3 24.04C20.37 23.52 22.07 23.05 23.94 24.6C25.76 26.1 25.55 28.39 24.36 29.83C22.91 31.58 21.45 31.28 21.12 31.68C20.94 31.9 21.09 32.14 21.67 32.63L21.39 32.96L17.4 29.66H17.39Z" fill="#5D3F32"/>
<path d="M24.51 10.34L26.6 12.38L26.3 12.69C24.64 11.07 24.1 11 23.24 11.69L20.25 14.11L23.85 18.56L25.68 17.08C26.53 16.39 26.63 15.99 25.46 14.55L25.8 14.28L28.92 18.14L28.58 18.41C27.41 16.97 27 16.98 26.15 17.67L24.32 19.15L27.73 23.36C28.26 24.02 28.49 24.07 29.03 23.63L31.55 21.59C32.4 20.9 32.44 20.2 31.32 17.61L31.71 17.43L33.12 20.69L33.3 21.12L25.77 27.21L25.5 26.87C26.8 25.82 26.79 25.41 26.1 24.55L19.37 16.24C18.68 15.39 18.28 15.29 16.98 16.35L16.71 16.02L24.15 10L24.5 10.34H24.51Z" fill="#5D3F32"/>
<path d="M43.46 15.66L43.65 16.05L42.35 16.67C40.84 17.39 40.4 17.56 39.15 16.48L34.36 12.74L34.02 12.9L33.58 13.11L35.78 17.74C36.25 18.73 36.62 18.92 38.13 18.2L38.32 18.59L33.02 21.11L32.83 20.72C34.34 20 34.43 19.6 33.96 18.61L29.37 8.96C28.9 7.97 28.53 7.78 27.02 8.5L26.83 8.11L31.74 5.78C34.45 4.49 36.46 4.93 37.48 7.08C38.68 9.6 37 11.23 35.16 12.3L35.29 12.24L35.31 12.29C36.14 12.11 36.94 12.25 38.1 13.17L41.02 15.47C41.94 16.19 42.47 16.14 43.45 15.67L43.46 15.66ZM35.6 7.92C34.77 6.18 33.36 5.81 32 6.46C31.51 6.69 31.11 7.02 30.86 7.36L33.27 12.43L33.71 12.22C35 11.63 36.73 10.29 35.61 7.91L35.6 7.92Z" fill="#5D3F32"/>
<path d="M47.06 12.64L47.87 2.4C47.95 1.31 47.87 1.03 46.24 1.41L46.14 0.99L49.98 0.11L50.08 0.53C49.01 0.78 48.69 1.09 48.59 2.24L47.49 15.88L46.61 16.08L39.53 4.31C38.92 3.32 38.49 3.18 37.42 3.43L37.32 3.01L42.64 1.79L42.74 2.21C41.11 2.59 41.16 2.87 41.72 3.81L47 12.65H47.05L47.06 12.64Z" fill="#5D3F32"/>
<path d="M62.3 0.76L62.56 3.67L62.13 3.71C61.93 1.4 61.56 0.99 60.46 0.96L56.61 0.85L56.44 6.57L58.8 6.64C59.9 6.67 60.23 6.43 60.28 4.58H60.71L60.57 9.56H60.14C60.19 7.69 59.88 7.43 58.78 7.4L56.42 7.33L56.26 12.75C56.24 13.59 56.37 13.78 57.08 13.8L60.32 13.89C61.42 13.92 61.9 13.41 62.73 10.72L63.14 10.84L62.09 14.23L61.95 14.68L52.27 14.4V13.97C53.96 14.02 54.22 13.7 54.25 12.6L54.56 1.91C54.59 0.81 54.35 0.48 52.68 0.43V0L62.26 0.28L62.3 0.77V0.76Z" fill="#5D3F32"/>
<path d="M77.07 18.91L76.92 19.32L71.8 17.44L71.95 17.03C73.52 17.61 73.64 17.34 73.68 16.24L73.78 13.46L69.45 11.87L67.76 14.07C67.1 14.94 67 15.21 68.59 15.79L68.44 16.2L64.74 14.84L64.89 14.43C65.92 14.81 66.36 14.72 67.07 13.81L75.43 2.97L76.27 3.28L75.79 17.01C75.75 18.17 76.04 18.52 77.07 18.9V18.91ZM73.81 12.67L74.06 5.96L74.01 5.94L69.92 11.25L73.81 12.67Z" fill="#5D3F32"/>
<path d="M85.79 22.65L94.43 17.11C95.35 16.52 95.52 16.28 94.23 15.21L94.51 14.88L97.53 17.41L97.25 17.74C96.41 17.04 95.97 16.97 94.99 17.58L83.46 24.95L82.77 24.37L87.86 11.62C88.27 10.54 88.13 10.11 87.29 9.41L87.57 9.08L91.75 12.58L91.47 12.91C90.19 11.84 89.99 12.05 89.58 13.07L85.74 22.61L85.78 22.65H85.79Z" fill="#5D3F32"/>
<path d="M98.42 19.45L98.76 19.18L102.41 23.77L102.07 24.04C101.03 22.73 100.62 22.74 99.76 23.42L91.39 30.07C90.53 30.75 90.43 31.15 91.47 32.46L91.13 32.73L87.48 28.14L87.82 27.87C88.86 29.18 89.27 29.18 90.13 28.49L98.5 21.84C99.36 21.16 99.46 20.76 98.41 19.45H98.42Z" fill="#5D3F32"/>
<path d="M95.56 30.02L95.77 30.4C93.26 31.89 92.48 34.21 93.44 35.9C94.15 37.17 95.4 37.52 96.6 36.85C98.01 36.06 98.25 33.98 98.68 31.67C99.21 29.04 99.52 27.77 101.17 26.84C102.97 25.83 104.74 26.65 105.7 28.36C106.65 30.05 105.97 31.37 106.18 31.74C106.28 31.91 106.45 31.9 107.14 31.51L107.35 31.89L103.66 33.96L103.45 33.58C105.34 32.43 106.07 30.54 105.15 28.89C104.42 27.59 103.33 27.46 102.5 27.92C101.32 28.58 101.19 30.21 100.83 31.93C100.21 34.98 100.04 36.73 97.92 37.92C95.87 39.08 93.81 38.06 92.89 36.43C91.78 34.45 92.58 33.2 92.32 32.74C92.18 32.49 91.9 32.54 91.24 32.91L91.03 32.53L95.55 29.99L95.56 30.02Z" fill="#5D3F32"/>
<path d="M107.75 34L108.15 33.85L110.23 39.34L109.83 39.49C109.24 37.92 108.84 37.8 107.82 38.19L97.82 41.98C96.79 42.37 96.58 42.72 97.17 44.28L96.77 44.43L94.69 38.94L95.09 38.79C95.68 40.36 96.07 40.48 97.1 40.09L107.1 36.3C108.13 35.91 108.34 35.56 107.75 34Z" fill="#5D3F32"/>
<path d="M109.53 52.3L109.42 51.88C111.69 51.26 111.99 50.84 111.79 49.76L111.37 47.49L99.76 49.62C98.68 49.82 98.41 50.12 98.71 51.77L98.29 51.85L97.23 46.08L97.65 46C97.95 47.65 98.32 47.84 99.4 47.64L111.01 45.51L110.59 43.23C110.39 42.15 109.96 41.86 107.62 42.09L107.58 41.68L110.51 41.38L110.99 41.33L112.84 51.4L112.37 51.52L109.53 52.3Z" fill="#5D3F32"/>
<path d="M106.14 54.5799C107.6 54.5999 108.77 55.8099 108.74 57.2699C108.72 58.7299 107.51 59.8899 106.05 59.8699C104.59 59.8499 103.42 58.6399 103.45 57.1799C103.47 55.7199 104.68 54.5499 106.14 54.5799Z" fill="#2E3430"/>
<path d="M96.73 71.2699L96.31 71.1799L96.61 69.7699C96.96 68.1299 97.09 67.6799 98.71 67.3399L104.59 65.8099L104.67 65.4399L104.77 64.9599L99.75 63.8899C98.68 63.6599 98.31 63.8399 97.96 65.4799L97.54 65.3899L98.76 59.6499L99.18 59.7399C98.83 61.3799 99.1 61.6899 100.17 61.9199L110.63 64.1399C111.7 64.3699 112.07 64.1899 112.42 62.5499L112.84 62.6399L111.71 67.9599C111.09 70.8999 109.52 72.2199 107.19 71.7299C104.46 71.1499 104.18 68.8299 104.45 66.7099L104.42 66.8499H104.37C104 67.6099 103.41 68.1599 101.97 68.5199L98.37 69.4499C97.24 69.7399 96.96 70.1999 96.74 71.2599L96.73 71.2699ZM107.66 69.7299C109.54 70.1299 110.69 69.2299 111.01 67.7499C111.12 67.2199 111.1 66.6999 110.99 66.2899L105.5 65.1199L105.4 65.5999C105.09 66.9899 105.1 69.1799 107.67 69.7199L107.66 69.7299Z" fill="#5D3F32"/>
<path d="M104.74 85.1799L101.99 84.2099L102.13 83.7999C104.32 84.5699 104.84 84.4099 105.32 83.4199L107.02 79.9599L101.88 77.4399L100.84 79.5599C100.36 80.5499 100.44 80.9499 102.1 81.7699L101.91 82.1599L97.45 79.9699L97.64 79.5799C99.3 80.3999 99.67 80.2199 100.16 79.2299L101.2 77.1099L96.34 74.7199C95.58 74.3499 95.36 74.3999 95.05 75.0299L93.62 77.9399C93.14 78.9299 93.4 79.5799 95.5 81.4499L95.22 81.7699L92.57 79.4099L92.22 79.0999L96.49 70.4099L96.88 70.5999C96.14 72.0999 96.32 72.4699 97.31 72.9599L106.91 77.6699C107.9 78.1499 108.3 78.0699 109.04 76.5699L109.43 76.7599L105.21 85.3599L104.75 85.1899L104.74 85.1799Z" fill="#5D3F32"/>
<path d="M95.9 82.7299L95.63 83.0699C93.3 81.3199 90.86 81.4699 89.65 82.9999C88.75 84.1399 88.9 85.4299 89.97 86.2799C91.24 87.2899 93.25 86.7199 95.55 86.2399C98.18 85.7299 99.48 85.5399 100.96 86.7099C102.58 87.9999 102.49 89.9399 101.27 91.4799C100.06 92.9999 98.59 92.8699 98.32 93.2099C98.2 93.3699 98.28 93.5199 98.9 94.0099L98.63 94.3499L95.31 91.7299L95.58 91.3899C97.36 92.7099 99.39 92.6599 100.57 91.1799C101.5 90.0099 101.21 88.9499 100.46 88.3599C99.4 87.5199 97.84 88.0099 96.11 88.3399C93.05 88.9299 91.37 89.4299 89.46 87.9199C87.61 86.4599 87.77 84.1699 88.93 82.6999C90.34 80.9199 91.8 81.1899 92.13 80.7799C92.31 80.5499 92.15 80.3199 91.56 79.8499L91.83 79.5099L95.9 82.7299Z" fill="#5D3F32"/>
<path d="M89.2 102.21L87.07 100.22L87.37 99.8999C89.06 101.48 89.61 101.54 90.45 100.83L93.39 98.3399L89.69 93.9699L87.89 95.4899C87.05 96.1999 86.97 96.5999 88.16 98.0199L87.83 98.2999L84.62 94.5099L84.95 94.2299C86.15 95.6499 86.56 95.6299 87.4 94.9199L89.2 93.3999L85.7 89.2599C85.15 88.6099 84.93 88.5699 84.39 89.0199L81.92 91.1099C81.08 91.8199 81.06 92.5199 82.24 95.0799L81.85 95.2699L80.37 92.0399L80.18 91.6199L87.58 85.3599L87.86 85.6899C86.58 86.7699 86.6 87.1799 87.31 88.0199L94.22 96.1899C94.93 97.0299 95.33 97.1099 96.61 96.0299L96.89 96.3599L89.58 102.55L89.22 102.21H89.2Z" fill="#5D3F32"/>
<path d="M70.15 97.2999L69.96 96.9099L71.25 96.2599C72.75 95.5099 73.18 95.3299 74.46 96.3799L79.33 100.02L79.67 99.8499L80.1 99.6299L77.8 95.0499C77.31 94.0699 76.94 93.8899 75.44 94.6399L75.25 94.2499L80.49 91.6099L80.68 91.9999C79.18 92.7499 79.1 93.1499 79.6 94.1399L84.4 103.69C84.89 104.67 85.26 104.85 86.76 104.1L86.95 104.49L82.09 106.93C79.4 108.28 77.39 107.88 76.32 105.76C75.07 103.27 76.71 101.6 78.52 100.48L78.39 100.55L78.37 100.5C77.54 100.7 76.74 100.58 75.56 99.6799L72.58 97.4499C71.65 96.7499 71.11 96.8199 70.15 97.2999ZM78.19 104.87C79.06 106.59 80.47 106.93 81.82 106.25C82.3 106.01 82.7 105.67 82.94 105.32L80.42 100.3L79.99 100.52C78.71 101.14 77.01 102.52 78.19 104.87Z" fill="#5D3F32"/>
<path d="M66.6 100.39L66.01 110.64C65.95 111.73 66.04 112.01 67.66 111.6L67.77 112.02L63.95 112.99L63.84 112.57C64.9 112.3 65.21 111.98 65.29 110.83L66.09 97.1599L66.96 96.9399L74.29 108.55C74.93 109.52 75.35 109.66 76.41 109.39L76.52 109.81L71.23 111.15L71.12 110.73C72.74 110.32 72.69 110.04 72.1 109.11L66.63 100.39H66.58H66.6Z" fill="#5D3F32"/>
<path d="M51.52 112.55L51.23 109.65L51.66 109.6C51.89 111.91 52.26 112.31 53.36 112.33L57.21 112.39L57.3 106.67L54.94 106.63C53.84 106.61 53.52 106.86 53.48 108.71H53.05L53.13 103.74H53.56C53.53 105.6 53.85 105.86 54.95 105.87L57.31 105.91L57.4 100.49C57.41 99.6499 57.27 99.4599 56.57 99.4499L53.33 99.3999C52.23 99.3799 51.76 99.8999 50.96 102.6L50.55 102.48L51.56 99.0799L51.69 98.6299L61.37 98.7899V99.2199C59.69 99.1899 59.43 99.5099 59.41 100.61L59.24 111.3C59.22 112.4 59.47 112.73 61.14 112.75V113.18L51.56 113.03L51.51 112.54L51.52 112.55Z" fill="#5D3F32"/>
<path d="M36.45 94.7699L36.59 94.3599L41.75 96.1299L41.61 96.5399C40.03 95.9999 39.92 96.2599 39.9 97.3599L39.86 100.14L44.22 101.63L45.86 99.3999C46.5 98.5199 46.6 98.2399 45 97.6999L45.14 97.2899L48.87 98.5699L48.73 98.9799C47.69 98.6199 47.26 98.7199 46.56 99.6499L38.43 110.66L37.58 110.37L37.77 96.6399C37.79 95.4799 37.49 95.1399 36.45 94.7799V94.7699ZM39.84 100.93L39.73 107.65L39.78 107.67L43.76 102.28L39.84 100.94V100.93Z" fill="#5D3F32"/>
<path d="M27.66 91.2299L19.14 96.9599C18.24 97.5699 18.07 97.8099 19.38 98.8499L19.11 99.1899L16.03 96.7299L16.3 96.3899C17.16 97.0699 17.6 97.1299 18.57 96.4899L29.93 88.8599L30.63 89.4199L25.82 102.28C25.43 103.37 25.58 103.79 26.44 104.48L26.17 104.82L21.91 101.42L22.18 101.08C23.49 102.12 23.68 101.91 24.07 100.88L27.7 91.2499L27.66 91.2199V91.2299Z" fill="#5D3F32"/>
<path d="M15.11 94.6999L14.78 94.9799L11.03 90.4699L11.36 90.1899C12.43 91.4799 12.84 91.4599 13.68 90.7599L21.9 83.9299C22.74 83.2299 22.83 82.8299 21.76 81.5399L22.09 81.2599L25.84 85.7699L25.51 86.0499C24.44 84.7599 24.03 84.7799 23.19 85.4799L14.97 92.3099C14.13 93.0099 14.04 93.4099 15.11 94.6999Z" fill="#5D3F32"/>
<path d="M17.76 84.1099L17.54 83.7399C20.01 82.1899 20.74 79.8599 19.75 78.1799C19.01 76.9299 17.75 76.5999 16.57 77.2999C15.18 78.1299 14.99 80.2099 14.6 82.5199C14.13 85.1599 13.85 86.4399 12.22 87.3999C10.44 88.4499 8.66 87.6699 7.66 85.9799C6.67 84.3099 7.33 82.9799 7.11 82.6099C7.01 82.4399 6.83 82.4599 6.15 82.8599L5.93 82.4899L9.57 80.3299L9.79 80.6999C7.92 81.8899 7.23 83.7999 8.2 85.4299C8.96 86.7199 10.05 86.8199 10.87 86.3399C12.03 85.6499 12.13 84.0199 12.45 82.2899C13 79.2199 13.13 77.4699 15.22 76.2299C17.25 75.0299 19.33 75.9899 20.28 77.6099C21.44 79.5599 20.66 80.8299 20.93 81.2799C21.08 81.5299 21.35 81.4699 22.01 81.0799L22.23 81.4499L17.77 84.0899L17.76 84.1099Z" fill="#5D3F32"/>
<path d="M5.48 80.3799L5.08 80.5399L2.88 75.0999L3.28 74.9399C3.91 76.4899 4.3 76.5999 5.32 76.1899L15.23 72.1699C16.25 71.7599 16.45 71.3999 15.82 69.8499L16.22 69.6899L18.42 75.1299L18.02 75.2899C17.39 73.7399 17 73.6299 15.98 74.0399L6.07 78.0599C5.05 78.4699 4.85 78.8299 5.48 80.3799Z" fill="#5D3F32"/>
<path d="M3.29 62.1399L3.41 62.5599C1.16 63.2299 0.86 63.6599 1.08 64.7299L1.55 66.9899L13.11 64.5999C14.19 64.3799 14.45 64.0699 14.11 62.4299L14.53 62.3399L15.72 68.0899L15.3 68.1799C14.96 66.5399 14.59 66.3599 13.52 66.5799L1.96 68.9699L2.43 71.2399C2.65 72.3099 3.1 72.5899 5.43 72.3099L5.48 72.7199L2.56 73.0899L2.08 73.1499L0 63.1199L0.47 62.9899L3.29 62.1499V62.1399Z" fill="#5D3F32"/>
<path d="M6.66005 59.8701C5.20005 59.8901 4.00005 58.7301 3.97005 57.2701C3.94005 55.8101 5.11005 54.6101 6.57005 54.5801C8.03005 54.5601 9.23005 55.7201 9.26005 57.1801C9.28005 58.6401 8.12005 59.8401 6.66005 59.8701Z" fill="#2E3430"/>
<path d="M73 57L73.293 57.4052C73.423 57.3111 73.5 57.1604 73.5 57C73.5 56.8396 73.423 56.6889 73.293 56.5948L73 57ZM60.3333 37.9865C60.2584 40.7718 61.312 44.1471 63.3871 47.5497C65.4668 50.9597 68.5909 54.4287 72.707 57.4052L73.293 56.5948C69.2788 53.6921 66.2479 50.3199 64.2409 47.029C62.2294 43.7309 61.2648 40.5458 61.333 38.0135L60.3333 37.9865ZM61.333 75.9865C61.2648 73.4542 62.2294 70.2691 64.2409 66.971C66.2479 63.6801 69.2788 60.3079 73.293 57.4052L72.707 56.5948C68.5909 59.5713 65.4668 63.0403 63.3871 66.4503C61.312 69.8529 60.2584 73.2282 60.3333 76.0135L61.333 75.9865ZM72.6772 56.5013H34V57.5013H72.6772V56.5013Z" fill="#5D3F32"/>
</g>
<defs>
<clipPath id="clip0_79_482">
<rect width="112.84" height="113.2" fill="white"/>
</clipPath>
</defs>
</svg>
